<?xml version="1.0" encoding="utf-8"?>
<!-- Generator: Adobe Illustrator 16.0.3, SVG Export Plug-In . SVG Version: 6.00 Build 0)  -->
<!DOCTYPE svg PUBLIC "-//W3C//DTD SVG 1.1//EN" "http://www.w3.org/Graphics/SVG/1.1/DTD/svg11.dtd">
<svg version="1.1" xmlns="http://www.w3.org/2000/svg" xmlns:xlink="http://www.w3.org/1999/xlink" x="0px" y="0px" width="400px"
	 height="400px" viewBox="0 0 400 400" enable-background="new 0 0 400 400" xml:space="preserve">

<g id="botProtrait">
	<circle fill="#E7EFF2" stroke="#777E82" stroke-width="10" stroke-miterlimit="10" cx="200.087" cy="200.001" r="189"/>
	<g id="neck">
		<path fill="#706E6C" d="M236.269,373.472l-3.86-0.892l3.87-1.132l0.093-15.704l-3.967-0.917l3.98-1.166l0.086-14.882
			l-3.967-0.917l3.979-1.167l0.039-6.411c0.036-6.588-5.271-11.962-11.862-11.999l-44.424-0.263
			c-6.588-0.039-11.962,5.271-12.003,11.86l-0.038,6.761l3.931,1.333l-3.943,0.738l-0.082,13.771l3.524,1.195l-3.534,0.664
			l-0.09,15.368l3.933,1.336l-3.947,0.737l-0.014,2.643c-0.036,6.586,5.275,11.965,11.862,12.001l44.426,0.261
			c6.588,0.037,11.96-5.274,11.998-11.86L236.269,373.472z"/>
		<path fill="#666666" d="M213.009,326.776c0,0,5.693,36.734-0.493,58.041l13.29,0.626c0,0,8.115-19.841,1.012-58.654
			L213.009,326.776z"/>

			<line fill="none" stroke="#4D4D4D" stroke-width="0.6627" stroke-miterlimit="10" x1="172.126" y1="337.977" x2="232.504" y2="337.862"/>

			<line fill="none" stroke="#4D4D4D" stroke-width="0.6627" stroke-miterlimit="10" x1="171.934" y1="371.049" x2="232.408" y2="372.58"/>

			<line fill="none" stroke="#4D4D4D" stroke-width="0.6627" stroke-miterlimit="10" x1="171.625" y1="353.681" x2="232.404" y2="354.827"/>
	</g>
	<g id="face">
		<path fill="#FF9800" d="M246.169,78.193l-86.343-0.629c-31.219-0.23-56.695,22.513-56.899,50.793l-0.75,102.155l0.08,64.328
			c3.614,24.963,27.082,44.341,55.657,44.551l86.338,0.634c31.216,0.228,56.693-22.516,56.899-50.798l1.166-159.413
			C302.525,101.534,277.385,78.421,246.169,78.193z"/>
		<g>
			<path fill="#5E7C8B" d="M187.614,171.166c0.024,10.086-8.137,18.284-18.229,18.307l-15.893,0.036
				c-10.089,0.022-18.283-8.137-18.309-18.23l-0.057-25.226c-0.02-10.087,8.14-18.285,18.23-18.307l15.891-0.034
				c10.094-0.024,18.29,8.135,18.312,18.229L187.614,171.166z"/>
			<path fill="#353535" d="M151.196,152.601c0-4.444,4.227-8.048,9.437-8.048l0,0c5.21,0,9.437,3.604,9.437,8.048v28.864
				c0,4.445-4.227,8.049-9.437,8.049l0,0c-5.21,0-9.437-3.604-9.437-8.049V152.601z"/>
			<path fill="#606060" d="M147.953,150.34l25.212-0.782c5.742-0.18,14.396-1.615,14.396-1.615
				c-0.021-10.094-8.218-18.253-18.312-18.229l-15.891,0.034c-10.091,0.021-18.25,8.22-18.23,18.307l0.023,5.876
				C138.356,150.49,142.879,150.496,147.953,150.34z"/>
			<path fill="#707070" d="M147.953,148.338l25.212-0.782c5.742-0.18,14.396-1.615,14.396-1.615
				c-0.021-10.094-8.218-18.253-18.312-18.229l-15.891,0.034c-10.091,0.021-18.25,8.22-18.23,18.307l0.023,5.876
				C138.356,148.488,142.879,148.494,147.953,148.338z"/>
		</g>
		<g>
			<path fill="#5E7C8B" d="M215.056,171.166c-0.023,10.086,8.138,18.284,18.229,18.307l15.894,0.036
				c10.089,0.022,18.283-8.137,18.31-18.23l0.056-25.226c0.02-10.087-8.14-18.285-18.23-18.307l-15.892-0.034
				c-10.093-0.024-18.289,8.135-18.311,18.229L215.056,171.166z"/>
			<path fill="#353535" d="M251.474,152.601c0-4.444-4.226-8.048-9.436-8.048l0,0c-5.211,0-9.437,3.604-9.437,8.048v28.864
				c0,4.445,4.226,8.049,9.437,8.049l0,0c5.21,0,9.436-3.604,9.436-8.049V152.601z"/>
			<path fill="#606060" d="M254.718,150.34l-25.213-0.782c-5.741-0.18-14.395-1.615-14.395-1.615
				c0.021-10.094,8.218-18.253,18.311-18.229l15.892,0.034c10.091,0.021,18.25,8.22,18.23,18.307l-0.023,5.876
				C264.314,150.49,259.792,150.496,254.718,150.34z"/>
			<path fill="#707070" d="M254.718,148.338l-25.213-0.782c-5.741-0.18-14.395-1.615-14.395-1.615
				c0.021-10.094,8.218-18.253,18.311-18.229l15.892,0.034c10.091,0.021,18.25,8.22,18.23,18.307l-0.023,5.876
				C264.314,148.488,259.792,148.494,254.718,148.338z"/>
		</g>
		<path opacity="0.6" fill="#B5680B" d="M270.537,294.422c0,7.357-5.965,13.322-13.321,13.322H143.98
			c-7.356,0-13.321-5.965-13.321-13.322v-42.186c0-7.356,5.965-13.321,13.321-13.321h113.235c7.356,0,13.321,5.965,13.321,13.321
			V294.422z"/>
		<g>
			<path fill="#FFFFFF" d="M270.537,266.669v-14.433c0-7.356-5.965-13.321-13.321-13.321H143.98
				c-7.356,0-13.321,5.965-13.321,13.321v14.433H270.537z"/>
			<path fill="#FFFFFF" d="M130.659,286.651v7.771c0,7.357,5.965,13.322,13.321,13.322h113.235c7.356,0,13.321-5.965,13.321-13.322
				v-7.771H130.659z"/>
			<g>
				<path opacity="0.6" fill="#E6E6E6" d="M139.54,266.669v-12.123c0-6.55,5.254-11.86,11.736-11.86h99.754
					c6.482,0,11.736,5.311,11.736,11.86v12.123h7.771v-14.433c0-7.356-5.965-13.321-13.321-13.321H143.98
					c-7.356,0-13.321,5.965-13.321,13.321v14.433H139.54z"/>
				<path opacity="0.6" fill="#E6E6E6" d="M262.767,286.374v5.739c0,6.55-5.254,11.86-11.736,11.86h-99.754
					c-6.482,0-11.736-5.311-11.736-11.86v-5.739h-8.881v8.048c0,7.357,5.965,13.322,13.321,13.322h113.235
					c7.356,0,13.321-5.965,13.321-13.322v-8.048H262.767z"/>
			</g>
		</g>
	</g>
	<circle fill="none" stroke="#777E82" stroke-width="10" stroke-miterlimit="10" cx="200.087" cy="200.001" r="189"/>
	<g id="mustache">
		<g>
			<path fill-rule="evenodd" clip-rule="evenodd" fill="#F48603" d="M329.272,232.576c5.746-5.099,12.445-5.725,18.984-2.614
				c18.801,8.939,24.027,29.623,15.547,46.918c-6.275,12.798-17.104,19.703-30.051,24.344c-15.369,5.51-31.135,5.979-47.137,4.855
				c-22.936-1.609-44.822-7.164-65.533-17.221c-6.883-3.341-12.773-8.156-18.727-12.836c-2.367-1.858-4.283-1.748-6.385,0.065
				c-21.492,18.529-47.801,24.846-74.771,29.431c-13.148,2.235-26.354,3.45-39.578,0.693c-9.662-2.012-19.131-4.66-27.938-9.301
				c-14.66-7.723-23.941-26.088-20.557-42.167c2.756-13.081,9.957-21.825,22.852-23.417c3.773-0.464,7.463,0.033,11.006,1.781
				c-6.42,0.242-11.961,1.868-15.344,7.918c-3.504,6.27-3.637,12.896-1.676,19.442c1.68,5.612,7.795,8.425,14.176,7.569
				c7.547-1.012,14.195-4.387,20.813-7.795c16.625-8.564,32.273-18.898,49.059-27.174c13.955-6.881,28.443-9.431,43.723-5.134
				c6.533,1.838,12.232,5.382,17.842,9.014c2.387,1.546,4.166,1.442,6.469-0.075c23-15.166,46.551-14.576,70.256-1.908
				c13.383,7.154,25.637,16.197,38.65,23.981c6.402,3.83,13.018,7.288,20.643,8.04c6.232,0.613,11.688-1.307,16.51-5.202
				c2.305-1.862,2.549-4.536,2.814-7.19c0.865-8.681-2.082-15.552-9.506-20.424c-3.84-2.522-7.973-1.827-12.107-1.562
				L329.272,232.576z"/>
			<path fill-rule="evenodd" clip-rule="evenodd" fill="#F48603" d="M329.306,232.609c-0.006,0.731-0.5,0.693-0.994,0.614
				c-0.107-0.017-0.195-0.146-0.293-0.227c0.42-0.141,0.836-0.281,1.254-0.421L329.306,232.609z"/>
		</g>
		<g>
			<path fill-rule="evenodd" clip-rule="evenodd" fill="#E27905" d="M199.144,274.191c-22.814,19.906-50.973,26.742-77.943,31.327
				c-13.148,2.235-26.354,3.45-39.578,0.693c-9.662-2.012-19.131-4.66-27.938-9.301c15.766,4.437,29.529,1.079,46.689-4.297
				c16.965-5.314,66.229-29.106,82.385-37.563c7.559-3.956,17.15-3.659,17.15-3.659L199.144,274.191z"/>
		</g>
		<g>
			<path fill-rule="evenodd" clip-rule="evenodd" fill="#E27905" d="M197.771,274.191c22.814,19.906,50.973,26.742,77.943,31.327
				c13.148,2.235,26.354,3.45,39.578,0.693c9.662-2.012,19.131-4.66,27.938-9.301c-15.764,4.437-29.529,1.079-46.689-4.297
				c-16.965-5.314-66.229-29.106-82.385-37.563c-7.559-3.956-17.15-3.659-17.15-3.659L197.771,274.191z"/>
		</g>
	</g>
</g>

</svg>
