<?xml version="1.0" encoding="utf-8"?>
<!-- Generator: Adobe Illustrator 16.0.0, SVG Export Plug-In . SVG Version: 6.00 Build 0)  -->
<!DOCTYPE svg PUBLIC "-//W3C//DTD SVG 1.1//EN" "http://www.w3.org/Graphics/SVG/1.1/DTD/svg11.dtd">
<svg version="1.1" xmlns="http://www.w3.org/2000/svg" xmlns:xlink="http://www.w3.org/1999/xlink" x="0px" y="0px" width="146px"
	 height="76px" viewBox="0 0 146 76" enable-background="new 0 0 146 76" xml:space="preserve">
<g id="backgroundColors">
</g>
<g id="clouds">
	<g>
		<g>
			<path fill="#E2F2F2" d="M38.5,28.5c3.819-1.51,8.123-2.573,12.167-1.333c0.272-1.172-0.344-3.12,0.12-4.26
				C50.533,23.01,50.165,22,49.833,22c-0.14,0-0.195-0.167-0.333-0.167c-0.518,0-1.014-0.102-1.333-0.333
				c-6.45-1.651-13.372-0.139-19.333,3c-5.098,2.687-9,7.434-9,13c0,0.312,0.613,1.599,0.5,1.833c2.271-0.415,6.363-0.957,8.667-1
				C29.315,33.588,34.038,30.263,38.5,28.5z"/>
			<path fill="#E2F2F2" d="M139.5,49.167c-5.332-9.017-14.608-10.584-24.333-9.833c-2.693,0.207-3.504-1.294-0.833-1.5
				c0.267-0.021-0.105-1.648,0.167-1.667c-1.676-6.799-4.138-14.774-8.5-21.107v-1.393c0-2.209-1.791-4-4-4h-0.714
				C98.577,7.267,95.36,5.438,91.5,4.5c-15.229-3.703-35.863,6.523-38.833,20.833c-0.116,0.559-0.95,3.61-1.333,3.833
				c-0.165,1.241-0.137,0.811-1.667,0c-3.254-1.726-8.927-0.942-12,0.833c-2.57,1.486-7.674,4.607-8,7.667
				c0.555,0.037,2.458,1.279,3,1.333c2.657,0.265-1.149,1.267-3.833,1c-8.097-0.809-17.993,2.218-22.667,9.667
				C3.929,53.232,3.811,58.991,5,63c0.895,3.022,3.975,7.995,7.5,9.333c0.138,0.051,120.803,2.651,124.167-2.833
				C139.078,65.572,142.012,53.415,139.5,49.167z"/>
			<path fill="#FFFFFF" d="M117.375,37.696c-3.664-14.761-9.584-32.757-27.702-36.208C75.396-1.23,58.37,8.203,51.863,20.598
				c-0.171-0.595-0.625-1.127-1.393-1.357c-8.559-2.566-16.56-1.063-24.33,3.031c-5.947,3.132-9.731,9.057-9.731,15.245
				c0,0.728,0.355,1.239,0.854,1.545C11.488,40.677,6.411,43.82,3.625,49.154C1.301,53.6,1.503,58.488,2.878,63.128
				c1.309,4.415,3.545,9.569,8.367,11.399c0.524,0.198,0.98,0.183,1.36,0.035c0.25,0.104,0.541,0.165,0.873,0.165
				c35.645,0,71.289,0,106.933,0c0.093,0,0.186,0,0.279,0c0.078,0,0.146-0.013,0.219-0.021c13.002,1.597,24.528-9.471,22.808-21.787
				C141.989,40.545,128.798,37.637,117.375,37.696z M20.597,37.516c0-5.566,3.759-9.821,8.857-12.508
				c5.961-3.139,12.338-3.961,18.788-2.31c0.319,0.231,0.735,0.375,1.253,0.375c0.139,0,0.278,0,0.418,0
				c0.332,0,0.62-0.063,0.874-0.167c-0.464,1.14-0.832,2.3-1.104,3.472c-4.044-1.24-8.728-0.504-12.547,1.006
				c-4.462,1.762-9.495,5.541-9.811,10.286c-2.304,0.043-4.635,0.25-6.906,0.666C20.532,38.102,20.597,37.828,20.597,37.516z
				 M137.111,63.549c-3.363,5.484-9.625,8.426-16.283,7.215c-0.405-0.075-0.769-0.039-1.094,0.06c-35.418,0-70.837,0-106.256,0
				c-0.279,0-0.521,0.051-0.742,0.125c-0.117-0.069-0.239-0.133-0.377-0.185c-3.525-1.338-4.906-6.861-5.801-9.883
				c-1.189-4.009-0.456-8.106,1.781-11.671c4.674-7.448,16.725-8.208,24.821-7.399c2.684,0.267,2.657-3.639,0-3.904
				c-0.542-0.054-1.093-0.097-1.648-0.134c0.326-3.06,4.06-4.993,6.63-6.479c3.073-1.776,8.296-2.404,11.551-0.679
				c1.53,0.811,2.949-0.334,3.113-1.575c0.383-0.223,0.685-0.594,0.801-1.152c2.97-14.31,22.095-25.823,37.323-22.12
				c14.478,3.519,19.188,19.898,22.192,32.083c-0.271,0.018-0.542,0.036-0.809,0.056c-2.671,0.206-2.693,4.111,0,3.904
				c9.725-0.75,20.833-0.762,26.165,8.255C140.99,54.313,139.522,59.621,137.111,63.549z"/>
			<path fill="#FFFFFF" d="M101.802,21.835c-0.549-2.528-2.26-4.762-4.273-6.456c-3.562-2.995-9.955-5.608-14.668-3.946
				c-2.501,0.882-1.417,4.656,1.113,3.765c3.942-1.392,9.917,1.675,12.333,4.641c2.855,3.505,1.037,8.021,2.262,11.95
				c0.752,2.413,4.793,1.386,4.038-1.037C101.708,27.868,102.444,24.797,101.802,21.835z"/>
			<path fill="#FFFFFF" d="M129.934,49.103c-0.866-0.666-1.531-1.308-2.886-2.208c-2.413-1.605-6.183-1.99-9.008-1.502
				c-2.653,0.458-1.526,4.219,1.114,3.764c2.023-0.349,4.713,0.267,6.308,1.478c0.757,0.577,1.289,1.289,2.211,1.645
				c-1.061-0.408,0.475,0.726,0.424,0.664c1.615,1.974,5.256,0.033,3.616-1.969C131.168,50.309,130.628,49.636,129.934,49.103z"/>
		</g>
	</g>
</g>
</svg>
